HIERARCHY
ROOT Hips
{
     OFFSET 19.44180 95.12930 -11.39840
     CHANNELS 6 Xposition Yposition Zposition Zrotation Xrotation Yrotation
     JOINT Spine
     {
          OFFSET -0.00000 11.89050 0.00000
          CHANNELS 3 Zrotation Xrotation Yrotation
          JOINT Spine1
          {
               OFFSET -0.00000 25.65740 0.12766
               CHANNELS 3 Zrotation Xrotation Yrotation
               JOINT HEad
               {
                    OFFSET -0.00000 8.73416 0.01134
                    CHANNELS 3 Zrotation Xrotation Yrotation
                    End Site
                    {
                         OFFSET -0.29000 12.77420 2.51395
                    }
               }
               JOINT LeftShoulder1
               {
                    OFFSET 8.99000 -0.36225 -0.22000
                    CHANNELS 3 Zrotation Xrotation Yrotation
                    JOINT LeftArm
                    {
                         OFFSET 10.28270 -0.00338 0.32212
                         CHANNELS 3 Zrotation Xrotation Yrotation
                         JOINT LeftForeArm
                         {
                              OFFSET 32.76690 0.09914 -1.42434
                              CHANNELS 3 Zrotation Xrotation Yrotation
                              JOINT LeftHand
                              {
                                   OFFSET 27.56430 0.08536 1.02216
                                   CHANNELS 3 Zrotation Xrotation Yrotation
                                   End Site
                                   {
                                        OFFSET 16.74430 -0.60000 1.50291
                                   }
                              }
                         }
                    }
               }
               JOINT RightShoulder
               {
                    OFFSET -8.99000 -0.36225 -0.22000
                    CHANNELS 3 Zrotation Xrotation Yrotation
                    JOINT RightArm
                    {
                         OFFSET -10.28270 -0.00338 0.32212
                         CHANNELS 3 Zrotation Xrotation Yrotation
                         JOINT RightForeArm
                         {
                              OFFSET -32.89710 0.09914 -1.42434
                              CHANNELS 3 Zrotation Xrotation Yrotation
                              JOINT RightHand
                              {
                                   OFFSET -27.49210 0.08536 1.02216
                                   CHANNELS 3 Zrotation Xrotation Yrotation
                                   End Site
                                   {
                                        OFFSET -16.63120 -0.60000 1.50291
                                   }
                              }
                         }
                    }
               }
          }
     }
     JOINT LeftUpLeg
     {
          OFFSET 8.94580 -8.66707 0.10165
          CHANNELS 3 Zrotation Xrotation Yrotation
          JOINT LeftLeg
          {
               OFFSET -0.00000 -44.42270 1.37270
               CHANNELS 3 Zrotation Xrotation Yrotation
               JOINT LeftFoot
               {
                    OFFSET -0.25355 -42.09240 -1.46059
                    CHANNELS 3 Zrotation Xrotation Yrotation
                    JOINT LeftToes
                    {
                         OFFSET -0.04000 -4.41509 8.49910
                         CHANNELS 3 Zrotation Xrotation Yrotation
                         End Site
                         {
                              OFFSET 0.08000 -0.04745 9.77979
                         }
                    }
               }
          }
     }
     JOINT RightUpLeg
     {
          OFFSET -8.94580 -8.66707 0.10165
          CHANNELS 3 Zrotation Xrotation Yrotation
          JOINT RightLeg
          {
               OFFSET -0.00000 -44.42270 1.37270
               CHANNELS 3 Zrotation Xrotation Yrotation
               JOINT RightFoot
               {
                    OFFSET 0.25355 -42.09240 -1.46059
                    CHANNELS 3 Zrotation Xrotation Yrotation
                    JOINT RightToes
                    {
                         OFFSET 0.04000 -4.41509 8.49910
                         CHANNELS 3 Zrotation Xrotation Yrotation
                         End Site
                         {
                              OFFSET -0.08000 -0.13745 9.77979
                         }
                    }
               }
          }
     }
}
MOTION
Frames: 6
Frame Time: 0.01667
31.90380 92.02860 17.26350 5.08564 -16.37010 15.16220 0.26238 11.00590 5.02853 -5.83639 22.80710 16.31240 10.86410 -10.26850 -35.79250 -0.00000 0.00000 -0.00000 -109.00100 -34.12140 -81.17750 -77.75420 56.42320 -49.61490 12.06200 7.54105 -19.35160 -27.02210 -1.01660 4.13545 66.81970 -17.25160 92.59240 -31.77200 1.83781 8.45204 35.73090 6.23963 -15.50970 0.02975 -11.47170 -10.16940 -18.68200 10.68460 45.86760 6.40244 26.19120 -2.06445 1.87346 -27.89670 -76.47610 -26.36830 22.00250 13.23900 50.56900 29.88430 -15.74890 -0.09299 -8.78973 -0.18017 19.24440 13.13250 -72.23890 
31.47900 92.15440 17.37000 4.61511 -16.27360 16.86580 0.03866 11.34210 4.04602 -5.99529 23.47020 14.35450 11.53760 -10.71200 -32.40380 -0.00000 0.00000 -0.00000 -109.57600 -33.58930 -83.01690 -77.47420 56.74470 -48.07170 11.88890 7.63981 -18.73330 -23.77350 -0.85457 4.20595 70.72800 -17.05470 90.29760 -34.37950 2.07708 23.08010 26.00740 9.23989 -7.13977 0.25304 -11.89440 -9.78398 -18.02010 11.37200 44.26030 5.66244 26.65200 -1.87154 2.14701 -27.33020 -77.01600 -25.04310 22.00180 12.26150 50.82130 29.84990 -16.53700 0.07615 -8.19457 -0.17494 24.27810 19.07890 -76.11130 
31.17540 92.37570 17.49870 3.93715 -16.12490 17.68660 -0.07982 11.69290 3.10950 -6.09952 24.16090 12.49420 11.52620 -10.99880 -29.37890 -0.00000 0.00000 -0.00000 -110.66100 -33.11740 -85.13680 -77.20670 56.96560 -46.13800 12.61630 7.51402 -18.52180 -19.78850 -0.69834 4.64477 79.36810 -18.23230 90.23880 -33.54900 4.53009 44.39310 17.94090 9.96411 -3.92852 0.67661 -12.21370 -9.52509 -17.33010 11.62710 43.02910 4.81779 26.80810 -1.62599 2.66358 -26.36920 -77.16420 -24.01350 21.45060 11.36330 50.90590 30.08920 -17.17850 0.31119 -6.94047 -0.16898 29.99960 25.25070 -80.02710 
31.01710 92.65570 17.63660 3.02805 -15.81760 17.76870 -0.04919 11.91950 2.24369 -6.04901 24.62690 10.74860 11.30030 -11.18440 -27.01000 -0.00000 0.00000 -0.00000 -111.89300 -32.62640 -87.15670 -76.34250 57.29110 -44.60760 13.88220 7.27297 -18.39040 -14.79720 -0.45258 5.08948 90.96030 -20.01150 92.06290 -28.36400 10.08120 66.26270 13.68900 9.96078 -3.83741 1.32318 -12.56170 -9.63895 -16.78590 11.40180 42.47600 4.23845 26.74750 -1.44895 3.16264 -25.45940 -77.04280 -23.33560 20.43310 10.49080 50.97760 30.47060 -17.66480 0.59947 -5.09014 -0.16834 35.81530 31.47710 -83.10690 
30.99930 92.95400 17.76250 1.85695 -15.36050 17.24050 0.15017 11.97510 1.40464 -5.74700 24.79320 9.00505 11.04070 -11.24340 -25.09950 -0.00000 0.00000 -0.00000 -111.63800 -31.76950 -88.29980 -72.60200 57.30770 -46.12840 15.16300 7.07687 -17.90930 -8.62644 -0.09020 5.40679 100.89000 -21.36830 93.46640 -18.73620 18.09480 83.35390 11.94790 10.01990 -3.22997 2.28456 -13.00980 -10.09280 -16.52150 10.81130 42.68360 4.15727 26.54280 -1.41573 3.46812 -24.90710 -76.80580 -22.94310 19.05130 9.66843 51.17420 30.94970 -17.93320 0.90270 -2.90171 -0.17809 40.55490 37.47950 -84.17230 
31.10820 93.24300 17.85850 0.43279 -14.82670 16.07940 0.47802 11.93590 0.55755 -5.19360 24.79550 7.18689 10.67770 -11.29770 -23.20210 -0.00000 0.00000 -0.00000 -109.63100 -30.78170 -88.62300 -66.13870 56.43520 -50.85500 16.06530 7.01254 -17.08270 -1.71388 0.35246 5.67100 106.39400 -22.38200 92.96500 -7.43223 27.10640 93.43590 11.90170 10.24580 -1.15323 3.63795 -13.53510 -10.57570 -16.54830 10.05250 43.52160 4.51636 26.25060 -1.50942 3.56250 -24.74510 -76.55460 -22.77740 17.37890 9.01268 51.53290 31.52990 -17.97630 1.18497 -0.66663 -0.19830 42.73580 42.54640 -82.34190 
